<svg width="16" height="17" viewBox="0 0 16 17" fill="none" xmlns="http://www.w3.org/2000/svg">
<path d="M10.75 8C10.75 8.5439 10.5887 9.07558 10.2865 9.52782C9.98437 9.98005 9.55488 10.3325 9.05238 10.5407C8.54988 10.7488 7.99695 10.8033 7.4635 10.6972C6.93005 10.5911 6.44005 10.3291 6.05546 9.94454C5.67086 9.55995 5.40895 9.06995 5.30284 8.5365C5.19673 8.00305 5.25119 7.45012 5.45933 6.94762C5.66747 6.44512 6.01995 6.01563 6.47218 5.71346C6.92442 5.41128 7.4561 5.25 8 5.25C8.72935 5.25 9.42882 5.53973 9.94454 6.05546C10.4603 6.57118 10.75 7.27065 10.75 8ZM14 3.5V13.5C14 13.7652 13.8946 14.0196 13.7071 14.2071C13.5196 14.3946 13.2652 14.5 13 14.5H3C2.73478 14.5 2.48043 14.3946 2.29289 14.2071C2.10536 14.0196 2 13.7652 2 13.5V3.5C2 3.23478 2.10536 2.98043 2.29289 2.79289C2.48043 2.60536 2.73478 2.5 3 2.5H13C13.2652 2.5 13.5196 2.60536 13.7071 2.79289C13.8946 2.98043 14 3.23478 14 3.5ZM13 13.5V3.5H3V13.5H3.22937C3.527 12.5609 4.0935 11.7297 4.85875 11.1094C4.98708 11.006 5.11958 10.9098 5.25625 10.8206C5.30178 10.7909 5.35577 10.7768 5.41002 10.7806C5.46427 10.7843 5.51583 10.8056 5.55688 10.8413C6.23588 11.4274 7.10299 11.7499 8 11.7499C8.89701 11.7499 9.76412 11.4274 10.4431 10.8413C10.4842 10.8056 10.5357 10.7843 10.59 10.7806C10.6442 10.7768 10.6982 10.7909 10.7437 10.8206C10.8804 10.9102 11.0129 11.0065 11.1412 11.1094C11.9065 11.7297 12.473 12.5609 12.7706 13.5H13Z" fill="#121312" fill-opacity="0.6"/>
</svg>
