<svg width="36" height="48" viewBox="0 0 36 48" fill="none" xmlns="http://www.w3.org/2000/svg">
<g id="dot_waving">
<rect id="hand-1" y="12" width="6" height="6" rx="2" fill="#00A084"/>
<rect id="Rectangle 383" x="6" y="18" width="6" height="6" rx="2" fill="#00A084"/>
<rect id="hand-2" x="6" y="12" width="6" height="6" rx="2" fill="#00A084" fill-opacity="0.01"/>
<rect id="Rectangle 410" x="6" y="30" width="6" height="6" rx="2" fill="#00A084"/>
<rect id="Rectangle 406" x="30" y="30" width="6" height="6" rx="2" fill="#00A084"/>
<rect id="Rectangle 411" y="36" width="6" height="6" rx="2" fill="#00A084"/>
<rect id="Rectangle 413" x="12" y="36" width="6" height="6" rx="2" fill="#00A084"/>
<rect id="Rectangle 419" y="42" width="6" height="6" rx="2" fill="#00A084"/>
<rect id="Rectangle 421" x="12" y="42" width="6" height="6" rx="2" fill="#00A084"/>
<rect id="Rectangle 360" x="12" width="6" height="6" rx="2" fill="#00A084"/>
<rect id="Rectangle 369" x="12" y="6" width="6" height="6" rx="2" fill="#00A084"/>
<rect id="Rectangle 377" x="18" y="12" width="6" height="6" rx="2" fill="#00A084"/>
<rect id="Rectangle 399" x="18" y="24" width="6" height="6" rx="2" fill="#00A084"/>
<rect id="Rectangle 397" x="30" y="24" width="6" height="6" rx="2" fill="#00A084"/>
<rect id="Rectangle 361" x="18" width="6" height="6" rx="2" fill="#00A084"/>
<rect id="Rectangle 362" x="24" width="6" height="6" rx="2" fill="#00A084"/>
<rect id="Rectangle 371" x="18" y="6" width="6" height="6" rx="2" fill="#00A084"/>
<rect id="Rectangle 373" x="24" y="6" width="6" height="6" rx="2" fill="#00A084"/>
<rect id="Rectangle 387" x="12" y="18" width="6" height="6" rx="2" fill="#00A084"/>
<rect id="Rectangle 391" x="18" y="18" width="6" height="6" rx="2" fill="#00A084"/>
<rect id="Rectangle 395" x="24" y="18" width="6" height="6" rx="2" fill="#00A084"/>
<rect id="Rectangle 409" x="12" y="30" width="6" height="6" rx="2" fill="#00A084"/>
<rect id="Rectangle 408" x="18" y="30" width="6" height="6" rx="2" fill="#00A084"/>
</g>
</svg>
