<svg width="636" height="139" viewBox="0 0 636 139" fill="none" xmlns="http://www.w3.org/2000/svg">
<g clip-path="url(#clip0_1470_11801)">
<rect width="636" height="139" fill="#AFE2DC"/>
<rect width="636" height="139" fill="#00A084"/>
<path d="M20 29.4483V22H44V29.4483C44 36.0757 38.6274 41.4483 32 41.4483C25.3726 41.4483 20 36.0757 20 29.4483Z" fill="#00735F"/>
<circle cx="32" cy="22" r="12" fill="#00A084"/>
<path d="M32 10C38.6274 10 44 15.3726 44 22C44 22.2781 43.9893 22.5538 43.9707 22.8271C43.5453 16.586 38.3491 11.6553 32 11.6553C25.6509 11.6553 20.4537 16.586 20.0283 22.8271C20.0097 22.5538 20 22.278 20 22C20 15.3726 25.3726 10 32 10Z" fill="#F3FFF3"/>
<path d="M64 29.4483V22H88V29.4483C88 36.0757 82.6274 41.4483 76 41.4483C69.3726 41.4483 64 36.0757 64 29.4483Z" fill="#00735F"/>
<circle cx="76" cy="22" r="12" fill="#00A084"/>
<path d="M76 10C82.6274 10 88 15.3726 88 22C88 22.2781 87.9893 22.5538 87.9707 22.8271C87.5453 16.586 82.3491 11.6553 76 11.6553C69.6509 11.6553 64.4537 16.586 64.0283 22.8271C64.0097 22.5538 64 22.278 64 22C64 15.3726 69.3726 10 76 10Z" fill="#F3FFF3"/>
<path d="M108 29.4483V22H132V29.4483C132 36.0757 126.627 41.4483 120 41.4483C113.373 41.4483 108 36.0757 108 29.4483Z" fill="#00735F"/>
<circle cx="120" cy="22" r="12" fill="#00A084"/>
<path d="M120 10C126.627 10 132 15.3726 132 22C132 22.2781 131.989 22.5538 131.971 22.8271C131.545 16.586 126.349 11.6553 120 11.6553C113.651 11.6553 108.454 16.586 108.028 22.8271C108.01 22.5538 108 22.278 108 22C108 15.3726 113.373 10 120 10Z" fill="#F3FFF3"/>
<path d="M152 29.4483V22H176V29.4483C176 36.0757 170.627 41.4483 164 41.4483C157.373 41.4483 152 36.0757 152 29.4483Z" fill="#00735F"/>
<circle cx="164" cy="22" r="12" fill="#00A084"/>
<path d="M164 10C170.627 10 176 15.3726 176 22C176 22.2781 175.989 22.5538 175.971 22.8271C175.545 16.586 170.349 11.6553 164 11.6553C157.651 11.6553 152.454 16.586 152.028 22.8271C152.01 22.5538 152 22.278 152 22C152 15.3726 157.373 10 164 10Z" fill="#F3FFF3"/>
<path d="M196 29.4483V22H220V29.4483C220 36.0757 214.627 41.4483 208 41.4483C201.373 41.4483 196 36.0757 196 29.4483Z" fill="#00735F"/>
<circle cx="208" cy="22" r="12" fill="#00A084"/>
<path d="M208 10C214.627 10 220 15.3726 220 22C220 22.2781 219.989 22.5538 219.971 22.8271C219.545 16.586 214.349 11.6553 208 11.6553C201.651 11.6553 196.454 16.586 196.028 22.8271C196.01 22.5538 196 22.278 196 22C196 15.3726 201.373 10 208 10Z" fill="#F3FFF3"/>
<path d="M240 29.4483V22H264V29.4483C264 36.0757 258.627 41.4483 252 41.4483C245.373 41.4483 240 36.0757 240 29.4483Z" fill="#00735F"/>
<circle cx="252" cy="22" r="12" fill="#00A084"/>
<path d="M252 10C258.627 10 264 15.3726 264 22C264 22.2781 263.989 22.5538 263.971 22.8271C263.545 16.586 258.349 11.6553 252 11.6553C245.651 11.6553 240.454 16.586 240.028 22.8271C240.01 22.5538 240 22.278 240 22C240 15.3726 245.373 10 252 10Z" fill="#F3FFF3"/>
<path d="M284 29.4483V22H308V29.4483C308 36.0757 302.627 41.4483 296 41.4483C289.373 41.4483 284 36.0757 284 29.4483Z" fill="#00735F"/>
<circle cx="296" cy="22" r="12" fill="#00A084"/>
<path d="M296 10C302.627 10 308 15.3726 308 22C308 22.2781 307.989 22.5538 307.971 22.8271C307.545 16.586 302.349 11.6553 296 11.6553C289.651 11.6553 284.454 16.586 284.028 22.8271C284.01 22.5538 284 22.278 284 22C284 15.3726 289.373 10 296 10Z" fill="#F3FFF3"/>
<path d="M328 29.4483V22H352V29.4483C352 36.0757 346.627 41.4483 340 41.4483C333.373 41.4483 328 36.0757 328 29.4483Z" fill="#00735F"/>
<circle cx="340" cy="22" r="12" fill="#00A084"/>
<path d="M340 10C346.627 10 352 15.3726 352 22C352 22.2781 351.989 22.5538 351.971 22.8271C351.545 16.586 346.349 11.6553 340 11.6553C333.651 11.6553 328.454 16.586 328.028 22.8271C328.01 22.5538 328 22.278 328 22C328 15.3726 333.373 10 340 10Z" fill="#F3FFF3"/>
<path d="M372 29.4483V22H396V29.4483C396 36.0757 390.627 41.4483 384 41.4483C377.373 41.4483 372 36.0757 372 29.4483Z" fill="#00735F"/>
<circle cx="384" cy="22" r="12" fill="#00A084"/>
<path d="M384 10C390.627 10 396 15.3726 396 22C396 22.2781 395.989 22.5538 395.971 22.8271C395.545 16.586 390.349 11.6553 384 11.6553C377.651 11.6553 372.454 16.586 372.028 22.8271C372.01 22.5538 372 22.278 372 22C372 15.3726 377.373 10 384 10Z" fill="#F3FFF3"/>
<path d="M416 29.4483V22H440V29.4483C440 36.0757 434.627 41.4483 428 41.4483C421.373 41.4483 416 36.0757 416 29.4483Z" fill="#00735F"/>
<circle cx="428" cy="22" r="12" fill="#00A084"/>
<path d="M428 10C434.627 10 440 15.3726 440 22C440 22.2781 439.989 22.5538 439.971 22.8271C439.545 16.586 434.349 11.6553 428 11.6553C421.651 11.6553 416.454 16.586 416.028 22.8271C416.01 22.5538 416 22.278 416 22C416 15.3726 421.373 10 428 10Z" fill="#F3FFF3"/>
<path d="M460 29.4483V22H484V29.4483C484 36.0757 478.627 41.4483 472 41.4483C465.373 41.4483 460 36.0757 460 29.4483Z" fill="#00735F"/>
<circle cx="472" cy="22" r="12" fill="#00A084"/>
<path d="M472 10C478.627 10 484 15.3726 484 22C484 22.2781 483.989 22.5538 483.971 22.8271C483.545 16.586 478.349 11.6553 472 11.6553C465.651 11.6553 460.454 16.586 460.028 22.8271C460.01 22.5538 460 22.278 460 22C460 15.3726 465.373 10 472 10Z" fill="#F3FFF3"/>
<path d="M504 29.4483V22H528V29.4483C528 36.0757 522.627 41.4483 516 41.4483C509.373 41.4483 504 36.0757 504 29.4483Z" fill="#00735F"/>
<circle cx="516" cy="22" r="12" fill="#00A084"/>
<path d="M516 10C522.627 10 528 15.3726 528 22C528 22.2781 527.989 22.5538 527.971 22.8271C527.545 16.586 522.349 11.6553 516 11.6553C509.651 11.6553 504.454 16.586 504.028 22.8271C504.01 22.5538 504 22.278 504 22C504 15.3726 509.373 10 516 10Z" fill="#F3FFF3"/>
<path d="M548 29.4483V22H572V29.4483C572 36.0757 566.627 41.4483 560 41.4483C553.373 41.4483 548 36.0757 548 29.4483Z" fill="#00735F"/>
<circle cx="560" cy="22" r="12" fill="#00A084"/>
<path d="M560 10C566.627 10 572 15.3726 572 22C572 22.2781 571.989 22.5538 571.971 22.8271C571.545 16.586 566.349 11.6553 560 11.6553C553.651 11.6553 548.454 16.586 548.028 22.8271C548.01 22.5538 548 22.278 548 22C548 15.3726 553.373 10 560 10Z" fill="#F3FFF3"/>
<path d="M592 29.4483V22H616V29.4483C616 36.0757 610.627 41.4483 604 41.4483C597.373 41.4483 592 36.0757 592 29.4483Z" fill="#00735F"/>
<circle cx="604" cy="22" r="12" fill="#00A084"/>
<path d="M604 10C610.627 10 616 15.3726 616 22C616 22.2781 615.989 22.5538 615.971 22.8271C615.545 16.586 610.349 11.6553 604 11.6553C597.651 11.6553 592.454 16.586 592.028 22.8271C592.01 22.5538 592 22.278 592 22C592 15.3726 597.373 10 604 10Z" fill="#F3FFF3"/>
<path d="M20 73.4483V66H44V73.4483C44 80.0757 38.6274 85.4483 32 85.4483C25.3726 85.4483 20 80.0757 20 73.4483Z" fill="#00735F"/>
<circle cx="32" cy="66" r="12" fill="#00A084"/>
<path d="M32 54C38.6274 54 44 59.3726 44 66C44 66.2781 43.9893 66.5538 43.9707 66.8271C43.5453 60.586 38.3491 55.6553 32 55.6553C25.6509 55.6553 20.4537 60.586 20.0283 66.8271C20.0097 66.5538 20 66.278 20 66C20 59.3726 25.3726 54 32 54Z" fill="#F3FFF3"/>
<path d="M64 73.4483V66H88V73.4483C88 80.0757 82.6274 85.4483 76 85.4483C69.3726 85.4483 64 80.0757 64 73.4483Z" fill="#00735F"/>
<circle cx="76" cy="66" r="12" fill="#00A084"/>
<path d="M76 54C82.6274 54 88 59.3726 88 66C88 66.2781 87.9893 66.5538 87.9707 66.8271C87.5453 60.586 82.3491 55.6553 76 55.6553C69.6509 55.6553 64.4537 60.586 64.0283 66.8271C64.0097 66.5538 64 66.278 64 66C64 59.3726 69.3726 54 76 54Z" fill="#F3FFF3"/>
<path d="M108 73.4483V66H132V73.4483C132 80.0757 126.627 85.4483 120 85.4483C113.373 85.4483 108 80.0757 108 73.4483Z" fill="#00735F"/>
<circle cx="120" cy="66" r="12" fill="#00A084"/>
<path d="M120 54C126.627 54 132 59.3726 132 66C132 66.2781 131.989 66.5538 131.971 66.8271C131.545 60.586 126.349 55.6553 120 55.6553C113.651 55.6553 108.454 60.586 108.028 66.8271C108.01 66.5538 108 66.278 108 66C108 59.3726 113.373 54 120 54Z" fill="#F3FFF3"/>
<path d="M152 73.4483V66H176V73.4483C176 80.0757 170.627 85.4483 164 85.4483C157.373 85.4483 152 80.0757 152 73.4483Z" fill="#00735F"/>
<circle cx="164" cy="66" r="12" fill="#00A084"/>
<path d="M164 54C170.627 54 176 59.3726 176 66C176 66.2781 175.989 66.5538 175.971 66.8271C175.545 60.586 170.349 55.6553 164 55.6553C157.651 55.6553 152.454 60.586 152.028 66.8271C152.01 66.5538 152 66.278 152 66C152 59.3726 157.373 54 164 54Z" fill="#F3FFF3"/>
<path d="M196 73.4483V66H220V73.4483C220 80.0757 214.627 85.4483 208 85.4483C201.373 85.4483 196 80.0757 196 73.4483Z" fill="#00735F"/>
<circle cx="208" cy="66" r="12" fill="#00A084"/>
<path d="M208 54C214.627 54 220 59.3726 220 66C220 66.2781 219.989 66.5538 219.971 66.8271C219.545 60.586 214.349 55.6553 208 55.6553C201.651 55.6553 196.454 60.586 196.028 66.8271C196.01 66.5538 196 66.278 196 66C196 59.3726 201.373 54 208 54Z" fill="#F3FFF3"/>
<path d="M240 73.4483V66H264V73.4483C264 80.0757 258.627 85.4483 252 85.4483C245.373 85.4483 240 80.0757 240 73.4483Z" fill="#00735F"/>
<circle cx="252" cy="66" r="12" fill="#00A084"/>
<path d="M252 54C258.627 54 264 59.3726 264 66C264 66.2781 263.989 66.5538 263.971 66.8271C263.545 60.586 258.349 55.6553 252 55.6553C245.651 55.6553 240.454 60.586 240.028 66.8271C240.01 66.5538 240 66.278 240 66C240 59.3726 245.373 54 252 54Z" fill="#F3FFF3"/>
<path d="M284 73.4483V66H308V73.4483C308 80.0757 302.627 85.4483 296 85.4483C289.373 85.4483 284 80.0757 284 73.4483Z" fill="#00735F"/>
<circle cx="296" cy="66" r="12" fill="#00A084"/>
<path d="M296 54C302.627 54 308 59.3726 308 66C308 66.2781 307.989 66.5538 307.971 66.8271C307.545 60.586 302.349 55.6553 296 55.6553C289.651 55.6553 284.454 60.586 284.028 66.8271C284.01 66.5538 284 66.278 284 66C284 59.3726 289.373 54 296 54Z" fill="#F3FFF3"/>
<path d="M328 73.4483V66H352V73.4483C352 80.0757 346.627 85.4483 340 85.4483C333.373 85.4483 328 80.0757 328 73.4483Z" fill="#00735F"/>
<circle cx="340" cy="66" r="12" fill="#00A084"/>
<path d="M340 54C346.627 54 352 59.3726 352 66C352 66.2781 351.989 66.5538 351.971 66.8271C351.545 60.586 346.349 55.6553 340 55.6553C333.651 55.6553 328.454 60.586 328.028 66.8271C328.01 66.5538 328 66.278 328 66C328 59.3726 333.373 54 340 54Z" fill="#F3FFF3"/>
<path d="M372 73.4483V66H396V73.4483C396 80.0757 390.627 85.4483 384 85.4483C377.373 85.4483 372 80.0757 372 73.4483Z" fill="#00735F"/>
<circle cx="384" cy="66" r="12" fill="#00A084"/>
<path d="M384 54C390.627 54 396 59.3726 396 66C396 66.2781 395.989 66.5538 395.971 66.8271C395.545 60.586 390.349 55.6553 384 55.6553C377.651 55.6553 372.454 60.586 372.028 66.8271C372.01 66.5538 372 66.278 372 66C372 59.3726 377.373 54 384 54Z" fill="#F3FFF3"/>
<path d="M416 73.4483V66H440V73.4483C440 80.0757 434.627 85.4483 428 85.4483C421.373 85.4483 416 80.0757 416 73.4483Z" fill="#00735F"/>
<circle cx="428" cy="66" r="12" fill="#00A084"/>
<path d="M428 54C434.627 54 440 59.3726 440 66C440 66.2781 439.989 66.5538 439.971 66.8271C439.545 60.586 434.349 55.6553 428 55.6553C421.651 55.6553 416.454 60.586 416.028 66.8271C416.01 66.5538 416 66.278 416 66C416 59.3726 421.373 54 428 54Z" fill="#F3FFF3"/>
<path d="M460 73.4483V66H484V73.4483C484 80.0757 478.627 85.4483 472 85.4483C465.373 85.4483 460 80.0757 460 73.4483Z" fill="#00735F"/>
<circle cx="472" cy="66" r="12" fill="#00A084"/>
<path d="M472 54C478.627 54 484 59.3726 484 66C484 66.2781 483.989 66.5538 483.971 66.8271C483.545 60.586 478.349 55.6553 472 55.6553C465.651 55.6553 460.454 60.586 460.028 66.8271C460.01 66.5538 460 66.278 460 66C460 59.3726 465.373 54 472 54Z" fill="#F3FFF3"/>
<path d="M504 73.4483V66H528V73.4483C528 80.0757 522.627 85.4483 516 85.4483C509.373 85.4483 504 80.0757 504 73.4483Z" fill="#00735F"/>
<circle cx="516" cy="66" r="12" fill="#00A084"/>
<path d="M516 54C522.627 54 528 59.3726 528 66C528 66.2781 527.989 66.5538 527.971 66.8271C527.545 60.586 522.349 55.6553 516 55.6553C509.651 55.6553 504.454 60.586 504.028 66.8271C504.01 66.5538 504 66.278 504 66C504 59.3726 509.373 54 516 54Z" fill="#F3FFF3"/>
<path d="M548 73.4483V66H572V73.4483C572 80.0757 566.627 85.4483 560 85.4483C553.373 85.4483 548 80.0757 548 73.4483Z" fill="#00735F"/>
<circle cx="560" cy="66" r="12" fill="#00A084"/>
<path d="M560 54C566.627 54 572 59.3726 572 66C572 66.2781 571.989 66.5538 571.971 66.8271C571.545 60.586 566.349 55.6553 560 55.6553C553.651 55.6553 548.454 60.586 548.028 66.8271C548.01 66.5538 548 66.278 548 66C548 59.3726 553.373 54 560 54Z" fill="#F3FFF3"/>
<path d="M592 73.4483V66H616V73.4483C616 80.0757 610.627 85.4483 604 85.4483C597.373 85.4483 592 80.0757 592 73.4483Z" fill="#00735F"/>
<circle cx="604" cy="66" r="12" fill="#00A084"/>
<path d="M604 54C610.627 54 616 59.3726 616 66C616 66.2781 615.989 66.5538 615.971 66.8271C615.545 60.586 610.349 55.6553 604 55.6553C597.651 55.6553 592.454 60.586 592.028 66.8271C592.01 66.5538 592 66.278 592 66C592 59.3726 597.373 54 604 54Z" fill="#F3FFF3"/>
<path d="M20 117.448V110H44V117.448C44 124.076 38.6274 129.448 32 129.448C25.3726 129.448 20 124.076 20 117.448Z" fill="#00735F"/>
<circle cx="32" cy="110" r="12" fill="#00A084"/>
<path d="M32 98C38.6274 98 44 103.373 44 110C44 110.278 43.9893 110.554 43.9707 110.827C43.5453 104.586 38.3491 99.6553 32 99.6553C25.6509 99.6553 20.4537 104.586 20.0283 110.827C20.0097 110.554 20 110.278 20 110C20 103.373 25.3726 98 32 98Z" fill="#F3FFF3"/>
<path d="M64 117.448V110H88V117.448C88 124.076 82.6274 129.448 76 129.448C69.3726 129.448 64 124.076 64 117.448Z" fill="#00735F"/>
<circle cx="76" cy="110" r="12" fill="#00A084"/>
<path d="M76 98C82.6274 98 88 103.373 88 110C88 110.278 87.9893 110.554 87.9707 110.827C87.5453 104.586 82.3491 99.6553 76 99.6553C69.6509 99.6553 64.4537 104.586 64.0283 110.827C64.0097 110.554 64 110.278 64 110C64 103.373 69.3726 98 76 98Z" fill="#F3FFF3"/>
<path d="M108 117.448V110H132V117.448C132 124.076 126.627 129.448 120 129.448C113.373 129.448 108 124.076 108 117.448Z" fill="#00735F"/>
<circle cx="120" cy="110" r="12" fill="#00A084"/>
<path d="M120 98C126.627 98 132 103.373 132 110C132 110.278 131.989 110.554 131.971 110.827C131.545 104.586 126.349 99.6553 120 99.6553C113.651 99.6553 108.454 104.586 108.028 110.827C108.01 110.554 108 110.278 108 110C108 103.373 113.373 98 120 98Z" fill="#F3FFF3"/>
<path d="M152 117.448V110H176V117.448C176 124.076 170.627 129.448 164 129.448C157.373 129.448 152 124.076 152 117.448Z" fill="#00735F"/>
<circle cx="164" cy="110" r="12" fill="#00A084"/>
<path d="M164 98C170.627 98 176 103.373 176 110C176 110.278 175.989 110.554 175.971 110.827C175.545 104.586 170.349 99.6553 164 99.6553C157.651 99.6553 152.454 104.586 152.028 110.827C152.01 110.554 152 110.278 152 110C152 103.373 157.373 98 164 98Z" fill="#F3FFF3"/>
<path d="M196 117.448V110H220V117.448C220 124.076 214.627 129.448 208 129.448C201.373 129.448 196 124.076 196 117.448Z" fill="#00735F"/>
<circle cx="208" cy="110" r="12" fill="#00A084"/>
<path d="M208 98C214.627 98 220 103.373 220 110C220 110.278 219.989 110.554 219.971 110.827C219.545 104.586 214.349 99.6553 208 99.6553C201.651 99.6553 196.454 104.586 196.028 110.827C196.01 110.554 196 110.278 196 110C196 103.373 201.373 98 208 98Z" fill="#F3FFF3"/>
<path d="M240 117.448V110H264V117.448C264 124.076 258.627 129.448 252 129.448C245.373 129.448 240 124.076 240 117.448Z" fill="#00735F"/>
<circle cx="252" cy="110" r="12" fill="#00A084"/>
<path d="M252 98C258.627 98 264 103.373 264 110C264 110.278 263.989 110.554 263.971 110.827C263.545 104.586 258.349 99.6553 252 99.6553C245.651 99.6553 240.454 104.586 240.028 110.827C240.01 110.554 240 110.278 240 110C240 103.373 245.373 98 252 98Z" fill="#F3FFF3"/>
<path d="M284 117.448V110H308V117.448C308 124.076 302.627 129.448 296 129.448C289.373 129.448 284 124.076 284 117.448Z" fill="#00735F"/>
<circle cx="296" cy="110" r="12" fill="#00A084"/>
<path d="M296 98C302.627 98 308 103.373 308 110C308 110.278 307.989 110.554 307.971 110.827C307.545 104.586 302.349 99.6553 296 99.6553C289.651 99.6553 284.454 104.586 284.028 110.827C284.01 110.554 284 110.278 284 110C284 103.373 289.373 98 296 98Z" fill="#F3FFF3"/>
<path d="M328 117.448V110H352V117.448C352 124.076 346.627 129.448 340 129.448C333.373 129.448 328 124.076 328 117.448Z" fill="#00735F"/>
<circle cx="340" cy="110" r="12" fill="#00A084"/>
<path d="M340 98C346.627 98 352 103.373 352 110C352 110.278 351.989 110.554 351.971 110.827C351.545 104.586 346.349 99.6553 340 99.6553C333.651 99.6553 328.454 104.586 328.028 110.827C328.01 110.554 328 110.278 328 110C328 103.373 333.373 98 340 98Z" fill="#F3FFF3"/>
<path d="M372 117.448V110H396V117.448C396 124.076 390.627 129.448 384 129.448C377.373 129.448 372 124.076 372 117.448Z" fill="#00735F"/>
<circle cx="384" cy="110" r="12" fill="#00A084"/>
<path d="M384 98C390.627 98 396 103.373 396 110C396 110.278 395.989 110.554 395.971 110.827C395.545 104.586 390.349 99.6553 384 99.6553C377.651 99.6553 372.454 104.586 372.028 110.827C372.01 110.554 372 110.278 372 110C372 103.373 377.373 98 384 98Z" fill="#F3FFF3"/>
<path d="M416 117.448V110H440V117.448C440 124.076 434.627 129.448 428 129.448C421.373 129.448 416 124.076 416 117.448Z" fill="#00735F"/>
<circle cx="428" cy="110" r="12" fill="#00A084"/>
<path d="M428 98C434.627 98 440 103.373 440 110C440 110.278 439.989 110.554 439.971 110.827C439.545 104.586 434.349 99.6553 428 99.6553C421.651 99.6553 416.454 104.586 416.028 110.827C416.01 110.554 416 110.278 416 110C416 103.373 421.373 98 428 98Z" fill="#F3FFF3"/>
<path d="M460 117.448V110H484V117.448C484 124.076 478.627 129.448 472 129.448C465.373 129.448 460 124.076 460 117.448Z" fill="#00735F"/>
<circle cx="472" cy="110" r="12" fill="#00A084"/>
<path d="M472 98C478.627 98 484 103.373 484 110C484 110.278 483.989 110.554 483.971 110.827C483.545 104.586 478.349 99.6553 472 99.6553C465.651 99.6553 460.454 104.586 460.028 110.827C460.01 110.554 460 110.278 460 110C460 103.373 465.373 98 472 98Z" fill="#F3FFF3"/>
<path d="M504 117.448V110H528V117.448C528 124.076 522.627 129.448 516 129.448C509.373 129.448 504 124.076 504 117.448Z" fill="#00735F"/>
<circle cx="516" cy="110" r="12" fill="#00A084"/>
<path d="M516 98C522.627 98 528 103.373 528 110C528 110.278 527.989 110.554 527.971 110.827C527.545 104.586 522.349 99.6553 516 99.6553C509.651 99.6553 504.454 104.586 504.028 110.827C504.01 110.554 504 110.278 504 110C504 103.373 509.373 98 516 98Z" fill="#F3FFF3"/>
<path d="M548 117.448V110H572V117.448C572 124.076 566.627 129.448 560 129.448C553.373 129.448 548 124.076 548 117.448Z" fill="#00735F"/>
<circle cx="560" cy="110" r="12" fill="#00A084"/>
<path d="M560 98C566.627 98 572 103.373 572 110C572 110.278 571.989 110.554 571.971 110.827C571.545 104.586 566.349 99.6553 560 99.6553C553.651 99.6553 548.454 104.586 548.028 110.827C548.01 110.554 548 110.278 548 110C548 103.373 553.373 98 560 98Z" fill="#F3FFF3"/>
<path d="M592 117.448V110H616V117.448C616 124.076 610.627 129.448 604 129.448C597.373 129.448 592 124.076 592 117.448Z" fill="#00735F"/>
<circle cx="604" cy="110" r="12" fill="#00A084"/>
<path d="M604 98C610.627 98 616 103.373 616 110C616 110.278 615.989 110.554 615.971 110.827C615.545 104.586 610.349 99.6553 604 99.6553C597.651 99.6553 592.454 104.586 592.028 110.827C592.01 110.554 592 110.278 592 110C592 103.373 597.373 98 604 98Z" fill="#F3FFF3"/>
<mask id="path-127-outside-1_1470_11801" maskUnits="userSpaceOnUse" x="54" y="40" width="88" height="94" fill="black">
<rect fill="white" x="54" y="40" width="88" height="94"/>
<path d="M54 49C54 44.0294 58.0294 40 63 40H133C137.971 40 142 44.0294 142 49V119C142 123.971 137.971 128 133 128H63C58.0294 128 54 123.971 54 119V49Z"/>
</mask>
<path d="M54 49C54 44.0294 58.0294 40 63 40H133C137.971 40 142 44.0294 142 49V119C142 123.971 137.971 128 133 128H63C58.0294 128 54 123.971 54 119V49Z" fill="#4EDF88"/>
<path d="M54 40H142H54ZM142 119C142 127.284 135.284 134 127 134H69C60.7157 134 54 127.284 54 119C54 120.657 58.0294 122 63 122H133C137.971 122 142 120.657 142 119ZM54 128V40V128ZM142 40V128V40Z" fill="#00735F" mask="url(#path-127-outside-1_1470_11801)"/>
<path d="M89.361 78.3252C89.1485 78.644 89.0352 79.0187 89.0352 79.4018V101.486C89.0352 102.558 89.9046 103.428 90.9771 103.428H95.2672C96.4379 103.428 97.3424 102.4 97.1933 101.238L94.6104 81.1201C94.3496 79.0891 97.003 78.0896 98.1471 79.7877L113.303 102.285C113.785 102.999 114.59 103.428 115.451 103.428H117.438C119.013 103.428 119.933 101.651 119.024 100.365L111.026 89.0507C110.256 87.9617 110.233 86.5121 110.968 85.3992L122.066 68.5891C123.203 66.8676 121.968 64.5732 119.906 64.5732H100.602C99.3028 64.5732 98.0898 65.2226 97.3695 66.3037L89.361 78.3252Z" fill="#00A084"/>
<path d="M75.4443 64.8223H89.3623C90.855 64.8226 91.7556 66.4746 90.9473 67.7295L78.9287 86.3789C78.5977 86.8925 78.4934 87.5205 78.6416 88.1133C79.1123 89.9956 81.594 90.4251 82.6699 88.8105L97.9023 65.9473C98.3708 65.2445 99.1593 64.8223 100.004 64.8223H101.929C103.292 64.8223 104.088 66.3604 103.301 67.4736L94.7666 79.542C94.2512 80.2709 94.2357 81.2414 94.7275 81.9863L106.322 99.5488C107.349 101.104 106.234 103.177 104.37 103.177H76.0889C74.7972 103.177 73.7502 102.13 73.75 100.838V66.5166C73.7502 65.5809 74.5087 64.8225 75.4443 64.8223Z" fill="#00A084" stroke="#00A084" stroke-width="0.5"/>
<mask id="path-131-outside-2_1470_11801" maskUnits="userSpaceOnUse" x="142" y="40" width="88" height="94" fill="black">
<rect fill="white" x="142" y="40" width="88" height="94"/>
<path d="M142 49C142 44.0294 146.029 40 151 40H221C225.971 40 230 44.0294 230 49V119C230 123.971 225.971 128 221 128H151C146.029 128 142 123.971 142 119V49Z"/>
</mask>
<path d="M142 49C142 44.0294 146.029 40 151 40H221C225.971 40 230 44.0294 230 49V119C230 123.971 225.971 128 221 128H151C146.029 128 142 123.971 142 119V49Z" fill="#AFE2DC"/>
<path d="M142 40H230H142ZM230 119C230 127.284 223.284 134 215 134H157C148.716 134 142 127.284 142 119C142 120.657 146.029 122 151 122H221C225.971 122 230 120.657 230 119ZM142 128V40V128ZM230 40V128V40Z" fill="#00735F" mask="url(#path-131-outside-2_1470_11801)"/>
<path d="M183.883 73.3485C184.722 71.5505 187.278 71.5505 188.117 73.3485L190.474 78.3971C190.706 78.8945 191.106 79.2942 191.603 79.5263L196.652 81.8825C198.449 82.7217 198.449 85.2783 196.652 86.1175L191.603 88.4737C191.106 88.7058 190.706 89.1055 190.474 89.6029L188.117 94.6515C187.278 96.4495 184.722 96.4495 183.883 94.6515L181.526 89.6029C181.294 89.1055 180.894 88.7058 180.397 88.4737L175.348 86.1175C173.551 85.2783 173.551 82.7217 175.348 81.8825L180.397 79.5263C180.894 79.2942 181.294 78.8945 181.526 78.3971L183.883 73.3485Z" fill="#73C5BC"/>
<mask id="path-134-outside-3_1470_11801" maskUnits="userSpaceOnUse" x="230" y="40" width="44" height="94" fill="black">
<rect fill="white" x="230" y="40" width="44" height="94"/>
<path d="M230 49C230 44.0294 234.029 40 239 40H265C269.971 40 274 44.0294 274 49V119C274 123.971 269.971 128 265 128H239C234.029 128 230 123.971 230 119V49Z"/>
</mask>
<path d="M230 49C230 44.0294 234.029 40 239 40H265C269.971 40 274 44.0294 274 49V119C274 123.971 269.971 128 265 128H239C234.029 128 230 123.971 230 119V49Z" fill="#4EDF88"/>
<path d="M230 40H274H230ZM274 119C274 127.284 267.284 134 259 134H245C236.716 134 230 127.284 230 119C230 120.657 234.029 122 239 122H265C269.971 122 274 120.657 274 119ZM230 128V40V128ZM274 40V128V40Z" fill="#00735F" mask="url(#path-134-outside-3_1470_11801)"/>
<mask id="path-136-outside-4_1470_11801" maskUnits="userSpaceOnUse" x="274" y="40" width="44" height="94" fill="black">
<rect fill="white" x="274" y="40" width="44" height="94"/>
<path d="M274 49C274 44.0294 278.029 40 283 40H309C313.971 40 318 44.0294 318 49V119C318 123.971 313.971 128 309 128H283C278.029 128 274 123.971 274 119V49Z"/>
</mask>
<path d="M274 49C274 44.0294 278.029 40 283 40H309C313.971 40 318 44.0294 318 49V119C318 123.971 313.971 128 309 128H283C278.029 128 274 123.971 274 119V49Z" fill="#AFE2DC"/>
<path d="M274 40H318H274ZM318 119C318 127.284 311.284 134 303 134H289C280.716 134 274 127.284 274 119C274 120.657 278.029 122 283 122H309C313.971 122 318 120.657 318 119ZM274 128V40V128ZM318 40V128V40Z" fill="#00735F" mask="url(#path-136-outside-4_1470_11801)"/>
<mask id="path-138-outside-5_1470_11801" maskUnits="userSpaceOnUse" x="318" y="40" width="44" height="94" fill="black">
<rect fill="white" x="318" y="40" width="44" height="94"/>
<path d="M318 49C318 44.0294 322.029 40 327 40H353C357.971 40 362 44.0294 362 49V119C362 123.971 357.971 128 353 128H327C322.029 128 318 123.971 318 119V49Z"/>
</mask>
<path d="M318 49C318 44.0294 322.029 40 327 40H353C357.971 40 362 44.0294 362 49V119C362 123.971 357.971 128 353 128H327C322.029 128 318 123.971 318 119V49Z" fill="#4EDF88"/>
<path d="M318 40H362H318ZM362 119C362 127.284 355.284 134 347 134H333C324.716 134 318 127.284 318 119C318 120.657 322.029 122 327 122H353C357.971 122 362 120.657 362 119ZM318 128V40V128ZM362 40V128V40Z" fill="#00735F" mask="url(#path-138-outside-5_1470_11801)"/>
<path d="M328 69.4483V62H352V69.4483C352 76.0757 346.627 81.4483 340 81.4483C333.373 81.4483 328 76.0757 328 69.4483Z" fill="#00735F"/>
<circle cx="340" cy="62" r="12" fill="#4EDF88"/>
<path d="M340 50C346.627 50 352 55.3726 352 62C352 62.2781 351.989 62.5538 351.971 62.8271C351.545 56.586 346.349 51.6553 340 51.6553C333.651 51.6553 328.454 56.586 328.028 62.8271C328.01 62.5538 328 62.278 328 62C328 55.3726 333.373 50 340 50Z" fill="#F3FFF3"/>
<path d="M328 113.448V106H352V113.448C352 120.076 346.627 125.448 340 125.448C333.373 125.448 328 120.076 328 113.448Z" fill="#00735F"/>
<circle cx="340" cy="106" r="12" fill="#4EDF88"/>
<path d="M340 94C346.627 94 352 99.3726 352 106C352 106.278 351.989 106.554 351.971 106.827C351.545 100.586 346.349 95.6553 340 95.6553C333.651 95.6553 328.454 100.586 328.028 106.827C328.01 106.554 328 106.278 328 106C328 99.3726 333.373 94 340 94Z" fill="#F3FFF3"/>
<mask id="path-146-outside-6_1470_11801" maskUnits="userSpaceOnUse" x="362" y="40" width="44" height="94" fill="black">
<rect fill="white" x="362" y="40" width="44" height="94"/>
<path d="M362 49C362 44.0294 366.029 40 371 40H397C401.971 40 406 44.0294 406 49V119C406 123.971 401.971 128 397 128H371C366.029 128 362 123.971 362 119V49Z"/>
</mask>
<path d="M362 49C362 44.0294 366.029 40 371 40H397C401.971 40 406 44.0294 406 49V119C406 123.971 401.971 128 397 128H371C366.029 128 362 123.971 362 119V49Z" fill="#AFE2DC"/>
<path d="M362 40H406H362ZM406 119C406 127.284 399.284 134 391 134H377C368.716 134 362 127.284 362 119C362 120.657 366.029 122 371 122H397C401.971 122 406 120.657 406 119ZM362 128V40V128ZM406 40V128V40Z" fill="#00735F" mask="url(#path-146-outside-6_1470_11801)"/>
<path d="M372 69.4483V62H396V69.4483C396 76.0757 390.627 81.4483 384 81.4483C377.373 81.4483 372 76.0757 372 69.4483Z" fill="#00735F"/>
<circle cx="384" cy="62" r="12" fill="#AFE2DC"/>
<path d="M384 50C390.627 50 396 55.3726 396 62C396 62.2781 395.989 62.5538 395.971 62.8271C395.545 56.586 390.349 51.6553 384 51.6553C377.651 51.6553 372.454 56.586 372.028 62.8271C372.01 62.5538 372 62.278 372 62C372 55.3726 377.373 50 384 50Z" fill="#F3FFF3"/>
<path d="M372 113.448V106H396V113.448C396 120.076 390.627 125.448 384 125.448C377.373 125.448 372 120.076 372 113.448Z" fill="#00735F"/>
<circle cx="384" cy="106" r="12" fill="#AFE2DC"/>
<path d="M384 94C390.627 94 396 99.3726 396 106C396 106.278 395.989 106.554 395.971 106.827C395.545 100.586 390.349 95.6553 384 95.6553C377.651 95.6553 372.454 100.586 372.028 106.827C372.01 106.554 372 106.278 372 106C372 99.3726 377.373 94 384 94Z" fill="#F3FFF3"/>
</g>
<defs>
<clipPath id="clip0_1470_11801">
<rect width="636" height="139" fill="white"/>
</clipPath>
</defs>
</svg>
