<svg width="15" height="13" viewBox="0 0 15 13" fill="none" xmlns="http://www.w3.org/2000/svg">
<path d="M14.25 0.875H0.75C0.600816 0.875 0.457742 0.934263 0.352252 1.03975C0.246763 1.14524 0.1875 1.28832 0.1875 1.4375V11C0.1875 11.2984 0.306026 11.5845 0.517005 11.7955C0.727983 12.0065 1.01413 12.125 1.3125 12.125H13.6875C13.9859 12.125 14.272 12.0065 14.483 11.7955C14.694 11.5845 14.8125 11.2984 14.8125 11V1.4375C14.8125 1.28832 14.7532 1.14524 14.6477 1.03975C14.5423 0.934263 14.3992 0.875 14.25 0.875ZM13.6875 11H1.3125V2.71648L7.11961 8.03984C7.22338 8.13511 7.35913 8.18797 7.5 8.18797C7.64087 8.18797 7.77662 8.13511 7.88039 8.03984L13.6875 2.71648V11Z" fill="#121312" fill-opacity="0.6"/>
</svg>
