<svg width="17" height="17" viewBox="0 0 17 17" fill="none" xmlns="http://www.w3.org/2000/svg">
<path d="M14.5 7.99954V13.9995C14.5 14.1321 14.4473 14.2593 14.3536 14.3531C14.2598 14.4469 14.1326 14.4995 14 14.4995H10.5C10.3674 14.4995 10.2402 14.4469 10.1464 14.3531C10.0527 14.2593 10 14.1321 10 13.9995V10.7495C10 10.6832 9.97366 10.6196 9.92678 10.5728C9.87989 10.5259 9.8163 10.4995 9.75 10.4995H7.25C7.1837 10.4995 7.12011 10.5259 7.07322 10.5728C7.02634 10.6196 7 10.6832 7 10.7495V13.9995C7 14.1321 6.94732 14.2593 6.85355 14.3531C6.75979 14.4469 6.63261 14.4995 6.5 14.4995H3C2.86739 14.4995 2.74021 14.4469 2.64645 14.3531C2.55268 14.2593 2.5 14.1321 2.5 13.9995V7.99954C2.50012 7.73437 2.60556 7.4801 2.79312 7.29266L7.79313 2.29266C7.98064 2.10527 8.2349 2 8.5 2C8.7651 2 9.01936 2.10527 9.20687 2.29266L14.2069 7.29266C14.3944 7.4801 14.4999 7.73437 14.5 7.99954Z" fill="#121312"/>
</svg>
