<svg width="13" height="13" viewBox="0 0 13 13" fill="none" xmlns="http://www.w3.org/2000/svg">
<path d="M6.50391 1.17148C8.24063 1.17148 8.44629 1.1791 9.1293 1.20957C9.76406 1.2375 10.1068 1.34414 10.3354 1.43301C10.6375 1.5498 10.8559 1.69199 11.0818 1.91797C11.3104 2.14648 11.45 2.3623 11.5668 2.66445C11.6557 2.89297 11.7623 3.23828 11.7902 3.87051C11.8207 4.55605 11.8283 4.76172 11.8283 6.4959C11.8283 8.23262 11.8207 8.43828 11.7902 9.12129C11.7623 9.75605 11.6557 10.0988 11.5668 10.3273C11.45 10.6295 11.3078 10.8479 11.0818 11.0738C10.8533 11.3023 10.6375 11.442 10.3354 11.5588C10.1068 11.6477 9.76152 11.7543 9.1293 11.7822C8.44375 11.8127 8.23809 11.8203 6.50391 11.8203C4.76719 11.8203 4.56152 11.8127 3.87852 11.7822C3.24375 11.7543 2.90098 11.6477 2.67246 11.5588C2.37031 11.442 2.15195 11.2998 1.92598 11.0738C1.69746 10.8453 1.55781 10.6295 1.44102 10.3273C1.35215 10.0988 1.24551 9.75352 1.21758 9.12129C1.18711 8.43574 1.17949 8.23008 1.17949 6.4959C1.17949 4.75918 1.18711 4.55352 1.21758 3.87051C1.24551 3.23574 1.35215 2.89297 1.44102 2.66445C1.55781 2.3623 1.7 2.14395 1.92598 1.91797C2.15449 1.68945 2.37031 1.5498 2.67246 1.43301C2.90098 1.34414 3.24629 1.2375 3.87852 1.20957C4.56152 1.1791 4.76719 1.17148 6.50391 1.17148ZM6.50391 0.000976562C4.73926 0.000976562 4.51836 0.00859375 3.8252 0.0390625C3.13457 0.0695312 2.65977 0.18125 2.24844 0.341211C1.81934 0.508789 1.45625 0.729687 1.0957 1.09277C0.732617 1.45332 0.511719 1.81641 0.344141 2.24297C0.18418 2.65684 0.0724609 3.1291 0.0419922 3.81973C0.0115234 4.51543 0.00390625 4.73633 0.00390625 6.50098C0.00390625 8.26562 0.0115234 8.48652 0.0419922 9.17969C0.0724609 9.87031 0.18418 10.3451 0.344141 10.7564C0.511719 11.1855 0.732617 11.5486 1.0957 11.9092C1.45625 12.2697 1.81934 12.4932 2.2459 12.6582C2.65977 12.8182 3.13203 12.9299 3.82266 12.9604C4.51582 12.9908 4.73672 12.9984 6.50137 12.9984C8.26602 12.9984 8.48692 12.9908 9.18008 12.9604C9.8707 12.9299 10.3455 12.8182 10.7568 12.6582C11.1834 12.4932 11.5465 12.2697 11.907 11.9092C12.2676 11.5486 12.491 11.1855 12.6561 10.759C12.816 10.3451 12.9277 9.87285 12.9582 9.18223C12.9887 8.48906 12.9963 8.26816 12.9963 6.50352C12.9963 4.73887 12.9887 4.51797 12.9582 3.8248C12.9277 3.13418 12.816 2.65937 12.6561 2.24805C12.4961 1.81641 12.2752 1.45332 11.9121 1.09277C11.5516 0.732226 11.1885 0.508789 10.7619 0.34375C10.348 0.183789 9.87578 0.0720703 9.18516 0.0416016C8.48945 0.00859375 8.26856 0.000976562 6.50391 0.000976562Z" fill="#121312" fill-opacity="0.6"/>
<path d="M6.50391 3.16211C4.66055 3.16211 3.16504 4.65762 3.16504 6.50098C3.16504 8.34434 4.66055 9.83984 6.50391 9.83984C8.34727 9.83984 9.84277 8.34434 9.84277 6.50098C9.84277 4.65762 8.34727 3.16211 6.50391 3.16211ZM6.50391 8.6668C5.30801 8.6668 4.33809 7.69687 4.33809 6.50098C4.33809 5.30508 5.30801 4.33516 6.50391 4.33516C7.6998 4.33516 8.66973 5.30508 8.66973 6.50098C8.66973 7.69687 7.6998 8.6668 6.50391 8.6668Z" fill="#121312" fill-opacity="0.6"/>
<path d="M10.7543 3.03005C10.7543 3.4617 10.4039 3.80955 9.9748 3.80955C9.54316 3.80955 9.19531 3.45916 9.19531 3.03005C9.19531 2.59841 9.5457 2.25056 9.9748 2.25056C10.4039 2.25056 10.7543 2.60095 10.7543 3.03005Z" fill="#121312" fill-opacity="0.6"/>
</svg>
