<svg width="90" height="180" viewBox="0 0 90 180" fill="none" xmlns="http://www.w3.org/2000/svg">
<g clip-path="url(#clip0_1472_11020)">
<path d="M0 9C0 4.02944 4.02944 0 9 0H81C85.9706 0 90 4.02944 90 9V171C90 175.971 85.9706 180 81 180H9C4.02944 180 0 175.971 0 171V9Z" fill="#AFE2DC"/>
<rect width="90" height="180" rx="9" fill="#AFE2DC"/>
<path d="M11 29.4483V22H35V29.4483C35 36.0757 29.6274 41.4483 23 41.4483C16.3726 41.4483 11 36.0757 11 29.4483Z" fill="#559991"/>
<circle cx="23" cy="22" r="12" fill="#AFE2DC"/>
<path d="M23 10C29.6274 10 35 15.3726 35 22C35 22.2781 34.9893 22.5538 34.9707 22.8271C34.5453 16.586 29.3491 11.6553 23 11.6553C16.6509 11.6553 11.4537 16.586 11.0283 22.8271C11.0097 22.5538 11 22.278 11 22C11 15.3726 16.3726 10 23 10Z" fill="#F3FFF3"/>
<path d="M55 29.4483V22H79V29.4483C79 36.0757 73.6274 41.4483 67 41.4483C60.3726 41.4483 55 36.0757 55 29.4483Z" fill="#559991"/>
<circle cx="67" cy="22" r="12" fill="#AFE2DC"/>
<path d="M67 10C73.6274 10 79 15.3726 79 22C79 22.2781 78.9893 22.5538 78.9707 22.8271C78.5453 16.586 73.3491 11.6553 67 11.6553C60.6509 11.6553 55.4537 16.586 55.0283 22.8271C55.0097 22.5538 55 22.278 55 22C55 15.3726 60.3726 10 67 10Z" fill="#F3FFF3"/>
<path d="M11 73.4483V66H35V73.4483C35 80.0757 29.6274 85.4483 23 85.4483C16.3726 85.4483 11 80.0757 11 73.4483Z" fill="#559991"/>
<circle cx="23" cy="66" r="12" fill="#AFE2DC"/>
<path d="M23 54C29.6274 54 35 59.3726 35 66C35 66.2781 34.9893 66.5538 34.9707 66.8271C34.5453 60.586 29.3491 55.6553 23 55.6553C16.6509 55.6553 11.4537 60.586 11.0283 66.8271C11.0097 66.5538 11 66.278 11 66C11 59.3726 16.3726 54 23 54Z" fill="#F3FFF3"/>
<path d="M55 73.4483V66H79V73.4483C79 80.0757 73.6274 85.4483 67 85.4483C60.3726 85.4483 55 80.0757 55 73.4483Z" fill="#559991"/>
<circle cx="67" cy="66" r="12" fill="#AFE2DC"/>
<path d="M67 54C73.6274 54 79 59.3726 79 66C79 66.2781 78.9893 66.5538 78.9707 66.8271C78.5453 60.586 73.3491 55.6553 67 55.6553C60.6509 55.6553 55.4537 60.586 55.0283 66.8271C55.0097 66.5538 55 66.278 55 66C55 59.3726 60.3726 54 67 54Z" fill="#F3FFF3"/>
<path d="M11 117.448V110H35V117.448C35 124.076 29.6274 129.448 23 129.448C16.3726 129.448 11 124.076 11 117.448Z" fill="#559991"/>
<circle cx="23" cy="110" r="12" fill="#AFE2DC"/>
<path d="M23 98C29.6274 98 35 103.373 35 110C35 110.278 34.9893 110.554 34.9707 110.827C34.5453 104.586 29.3491 99.6553 23 99.6553C16.6509 99.6553 11.4537 104.586 11.0283 110.827C11.0097 110.554 11 110.278 11 110C11 103.373 16.3726 98 23 98Z" fill="#F3FFF3"/>
<path d="M55 117.448V110H79V117.448C79 124.076 73.6274 129.448 67 129.448C60.3726 129.448 55 124.076 55 117.448Z" fill="#559991"/>
<circle cx="67" cy="110" r="12" fill="#AFE2DC"/>
<path d="M67 98C73.6274 98 79 103.373 79 110C79 110.278 78.9893 110.554 78.9707 110.827C78.5453 104.586 73.3491 99.6553 67 99.6553C60.6509 99.6553 55.4537 104.586 55.0283 110.827C55.0097 110.554 55 110.278 55 110C55 103.373 60.3726 98 67 98Z" fill="#F3FFF3"/>
<path d="M11 161.448V154H35V161.448C35 168.076 29.6274 173.448 23 173.448C16.3726 173.448 11 168.076 11 161.448Z" fill="#559991"/>
<circle cx="23" cy="154" r="12" fill="#AFE2DC"/>
<path d="M23 142C29.6274 142 35 147.373 35 154C35 154.278 34.9893 154.554 34.9707 154.827C34.5453 148.586 29.3491 143.655 23 143.655C16.6509 143.655 11.4537 148.586 11.0283 154.827C11.0097 154.554 11 154.278 11 154C11 147.373 16.3726 142 23 142Z" fill="#F3FFF3"/>
<path d="M55 161.448V154H79V161.448C79 168.076 73.6274 173.448 67 173.448C60.3726 173.448 55 168.076 55 161.448Z" fill="#559991"/>
<circle cx="67" cy="154" r="12" fill="#AFE2DC"/>
<path d="M67 142C73.6274 142 79 147.373 79 154C79 154.278 78.9893 154.554 78.9707 154.827C78.5453 148.586 73.3491 143.655 67 143.655C60.6509 143.655 55.4537 148.586 55.0283 154.827C55.0097 154.554 55 154.278 55 154C55 147.373 60.3726 142 67 142Z" fill="#F3FFF3"/>
</g>
<defs>
<clipPath id="clip0_1472_11020">
<path d="M0 9C0 4.02944 4.02944 0 9 0H81C85.9706 0 90 4.02944 90 9V171C90 175.971 85.9706 180 81 180H9C4.02944 180 0 175.971 0 171V9Z" fill="white"/>
</clipPath>
</defs>
</svg>
