<svg width="375" height="480" viewBox="0 0 375 480" fill="none" xmlns="http://www.w3.org/2000/svg">
<g clip-path="url(#clip0_1470_10701)">
<mask id="path-1-outside-1_1470_10701" maskUnits="userSpaceOnUse" x="0" y="-1" width="375" height="481" fill="black">
<rect fill="white" y="-1" width="375" height="481"/>
<path d="M0 0H375V471C375 475.971 370.971 480 366 480H9C4.02943 480 0 475.971 0 471V0Z"/>
</mask>
<path d="M0 0H375V471C375 475.971 370.971 480 366 480H9C4.02943 480 0 475.971 0 471V0Z" fill="#00A084"/>
<rect y="255" width="375" height="225" fill="#009178"/>
<rect y="270" width="375" height="210" fill="#00826B"/>
<rect y="300" width="375" height="180" fill="#00735F"/>
<rect y="360" width="375" height="120" fill="#006352"/>
<path d="M35.5 422.5L149.5 382.5L276 384.5L404 483H0L8 453C12.8 435 28.3333 425.167 35.5 422.5Z" fill="#121312"/>
<path d="M142.502 423.5C144.902 406.3 152.169 392.667 155.502 388V327.5L292.5 291L290 314C283.6 324.4 280.333 361.333 279.5 378.5C280.3 386.9 288.5 401 292.5 407C297.7 437.4 256.667 470 235.5 482.5H144.5L142.502 466.5C137.702 450.1 140.502 431 142.502 423.5Z" fill="#F3FFF3"/>
<mask id="mask0_1470_10701" style="mask-type:alpha" maskUnits="userSpaceOnUse" x="139" y="291" width="154" height="192">
<path d="M142.502 423.5C144.902 406.3 152.169 392.667 155.502 388V327.5L292.5 291L290 314C283.6 324.4 280.333 361.333 279.5 378.5C280.3 386.9 288.5 401 292.5 407C297.7 437.4 256.667 470 235.5 482.5H144.5L142.502 466.5C137.702 450.1 140.502 431 142.502 423.5Z" fill="#F3FFF3"/>
</mask>
<g mask="url(#mask0_1470_10701)">
<path d="M168.5 418.5C171.166 415.834 190.5 419 213.5 403L190.5 394L154.5 384.5L132 429L141 489.5H184.5L174.5 452.5C168 430.5 167 420 168.5 418.5Z" fill="#AFE2DC"/>
</g>
<mask id="mask1_1470_10701" style="mask-type:alpha" maskUnits="userSpaceOnUse" x="139" y="291" width="154" height="192">
<path d="M142.502 423.5C144.902 406.3 152.169 392.667 155.502 388V327.5L292.5 291L290 314C283.6 324.4 280.333 361.333 279.5 378.5C280.3 386.9 288.5 401 292.5 407C297.7 437.4 256.667 470 235.5 482.5H144.5L142.502 466.5C137.702 450.1 140.502 431 142.502 423.5Z" fill="#F3FFF3"/>
</mask>
<g mask="url(#mask1_1470_10701)">
<path d="M186 411L164.153 408.378C162.181 408.142 160.453 406.944 159.54 405.18L146.5 380L282 295V312.5C266.5 383 211 404.5 201.5 408C196.071 410 190.5 412 186 411Z" fill="#121312"/>
</g>
<path d="M124.403 191.776L127.973 183.796C128.654 182.273 129.124 180.663 129.369 179.012C130.371 172.249 135.064 166.61 141.533 164.398L177.969 151.94C197.582 145.233 219.014 146.253 237.902 154.791L265.939 167.466C275.875 171.957 283.533 180.329 287.123 190.625L307.217 248.256C307.58 249.294 308.903 249.597 309.681 248.819C309.889 248.611 310.154 248.469 310.443 248.411L316.273 247.245C317.09 247.082 317.894 246.859 318.678 246.579L321.81 245.461C323.549 244.84 325.449 244.845 327.185 245.476C328.999 246.136 330.51 247.435 331.435 249.13L331.962 250.098C332.647 251.353 333.077 252.732 333.227 254.155L333.578 257.487C333.858 260.148 333.75 262.836 333.256 265.466L332.5 269.5L330 282.5L328.259 290.161C327.755 292.379 326.986 294.528 325.968 296.563C324.338 299.824 322.095 302.74 319.361 305.152L315 309L307.25 315.934C306.089 316.973 304.794 317.853 303.4 318.55L302.052 319.224C299.739 320.38 297.129 320.804 294.569 320.438L292.778 320.183C291.938 320.063 291.14 319.743 290.449 319.249C288.93 318.165 288.095 316.36 288.25 314.501L288.909 306.596C288.926 306.39 288.641 306.318 288.558 306.507L277.464 331.791C270.911 346.725 260.97 359.927 248.429 370.351L245.157 373.071C234.491 381.936 222.175 388.6 208.92 392.679L198.734 395.813C192.944 397.594 186.92 398.5 180.862 398.5H178.3C173.465 398.5 168.662 397.721 164.075 396.192L161.773 395.424C156.984 393.828 152.608 391.19 148.96 387.701C145.043 383.954 142.073 379.329 140.297 374.208L134.5 357.5L129 341L123 312.5L121.5 294L119.848 278.855C118.952 270.647 119.028 262.362 120.074 254.172L121.5 243V234.963C121.5 232.34 121.054 229.736 120.181 227.263C119.073 224.125 118.656 220.784 118.957 217.469L119.635 210.018C120.208 203.716 121.819 197.552 124.403 191.776Z" fill="#F3FFF3"/>
<mask id="mask2_1470_10701" style="mask-type:alpha" maskUnits="userSpaceOnUse" x="118" y="147" width="216" height="252">
<path d="M124.403 191.776L127.973 183.796C128.654 182.273 129.124 180.663 129.369 179.012C130.371 172.249 135.064 166.61 141.533 164.398L177.969 151.94C197.582 145.233 219.014 146.253 237.902 154.791L265.939 167.466C275.875 171.957 283.533 180.329 287.123 190.625L307.217 248.256C307.58 249.294 308.903 249.597 309.681 248.819C309.889 248.611 310.154 248.469 310.443 248.411L316.273 247.245C317.09 247.082 317.894 246.859 318.678 246.579L321.81 245.461C323.549 244.84 325.449 244.845 327.185 245.476C328.999 246.136 330.51 247.435 331.435 249.13L331.962 250.098C332.647 251.353 333.077 252.732 333.227 254.155L333.578 257.487C333.858 260.148 333.75 262.836 333.256 265.466L332.5 269.5L330 282.5L328.259 290.161C327.755 292.379 326.986 294.528 325.968 296.563C324.338 299.824 322.095 302.74 319.361 305.152L315 309L307.25 315.934C306.089 316.973 304.794 317.853 303.4 318.55L302.052 319.224C299.739 320.38 297.129 320.804 294.569 320.438L292.778 320.183C291.938 320.063 291.14 319.743 290.449 319.249C288.93 318.165 288.095 316.36 288.25 314.501L288.909 306.596C288.926 306.39 288.641 306.318 288.558 306.507L277.464 331.791C270.911 346.725 260.97 359.927 248.429 370.351L245.157 373.071C234.491 381.936 222.175 388.6 208.92 392.679L198.734 395.813C192.944 397.594 186.92 398.5 180.862 398.5H178.3C173.465 398.5 168.662 397.721 164.075 396.192L161.773 395.424C156.984 393.828 152.608 391.19 148.96 387.701C145.043 383.954 142.073 379.329 140.297 374.208L134.5 357.5L129 341L123 312.5L121.5 294L119.848 278.855C118.952 270.647 119.028 262.362 120.074 254.172L121.5 243V234.963C121.5 232.34 121.054 229.736 120.181 227.263C119.073 224.125 118.656 220.784 118.957 217.469L119.635 210.018C120.208 203.716 121.819 197.552 124.403 191.776Z" fill="#F3FFF3"/>
</mask>
<g mask="url(#mask2_1470_10701)">
<path d="M114.5 210.5C126.167 208.333 150.4 210 154 234C154 235.5 153.4 239.3 151 242.5C148.167 246.167 142.2 255.2 141 262L130.5 296C128.833 301.667 129.3 313.2 144.5 314C149.3 314.8 153.333 310.333 154.5 308C157.455 305.045 161.683 304.819 164.766 305.306C166.591 305.594 168.01 306.962 169.672 307.771C172.421 309.11 175.821 308.275 177.5 307.5C181.273 306.557 181.586 298.96 181.062 292.92C181.019 292.434 181.624 292.305 181.741 292.778C182.921 297.566 184.005 303.782 184.5 307C185.7 314.6 177.333 314.167 173 313C165.8 311.8 159.5 316.5 157.5 319.5C156.406 320.959 154.674 321.42 153.745 321.49C153.582 321.502 153.419 321.48 153.261 321.44L151.952 321.112L148.872 328.428C148.33 329.714 148.499 331.191 149.316 332.322L154.5 339.5L144.5 338L149.395 349.748L178.5 343C182.824 341.559 188.07 341.041 190.692 339.672C190.83 339.6 190.996 339.697 190.979 339.852C190.793 341.607 189.396 345.604 188 347L176.5 360C174.1 362.8 170.5 363.167 169 363L149.984 359.099L146.954 363.763C146.005 365.223 145.495 366.92 145.588 368.658C145.868 373.913 147.046 385.546 152 390.5C158.499 396.999 92.0246 356.015 92 356L114.5 210.5ZM325 182.5L291 266.5C295 237.3 291 227.5 279 223.5C280 212.5 275 209.667 272 208C250 210.4 235.833 196 231.5 188.5C218.3 202.1 195.667 194.167 186 188.5C183.833 193 175.228 200.699 158 196C130.5 188.5 123.833 201.5 118.5 204.5L108.5 134.5L272 131.5L325 182.5ZM236.691 250.27C237.054 250.149 237.406 250.459 237.302 250.826C236.24 254.555 232.27 261 223 261C215.172 261 208.058 258.242 204.298 256.085C203.814 255.807 204.089 255.327 204.613 255.519C221.217 261.595 231.701 257.79 232.945 251.801C232.983 251.617 233.111 251.463 233.289 251.403L236.691 250.27Z" fill="#AFE2DC"/>
</g>
<path d="M201.066 241.56L194.351 245.589C194.139 245.717 194.302 246.041 194.531 245.945L203.049 242.396C203.68 242.133 204.349 241.948 205.028 241.867C221.139 239.96 229.928 247.037 232.786 251.178C232.916 251.367 233.152 251.449 233.369 251.377L236.773 250.242C237.116 250.128 237.224 249.696 236.976 249.435C225.938 237.81 210.429 238.445 203.029 240.663C202.336 240.871 201.687 241.188 201.066 241.56Z" fill="#121312"/>
<circle cx="221" cy="246.5" r="8.5" fill="#121312"/>
<path d="M237.5 250C225 236 206 239 202 241V232.5H236.5L237.5 250Z" fill="#F3FFF3"/>
<path d="M130.002 246C125.602 243.6 125.5 237.5 127.502 235L135.001 233L146.001 235L151.501 239L148.501 246C142.101 250.8 133.5 247.908 130.002 246Z" fill="#F3FFF3"/>
<path d="M119.965 236.201C132.666 228.219 147.56 233.067 152.5 238.5V239.5C142.95 233.399 133.119 233.631 127.135 235.5C124.923 236.399 123.604 237.422 121.5 239L119.843 236.929C119.659 236.699 119.716 236.358 119.965 236.201Z" fill="#121312"/>
<circle cx="143" cy="238.5" r="8" fill="#121312"/>
<path d="M124 234C138.5 228.5 148.5 235.5 152.5 238.5C153.3 234.1 152.167 230 151.5 228.5L124 224V234Z" fill="#AFE2DC"/>
<path d="M143.5 332.5C145.422 330.963 146.882 331.763 147.437 332.42C146.823 331.648 146.743 331.469 151 336.5C155.4 341.699 160.167 337.333 162 334.5C162.667 333 164.6 330.5 167 332.5C170.001 335 180.5 339.5 184 340C184.284 340.04 184.547 340.096 184.789 340.162C186.518 340.394 188.97 340.029 190 339C191.325 337.675 191.87 342.202 187.496 342.93C187.497 342.954 187.5 342.977 187.5 343L186.815 343.01C186.539 343.028 186.248 343.033 185.94 343.022L154 343.5L139.899 335.721C139.747 335.636 139.77 335.409 139.934 335.35C142.354 334.494 141.131 334.395 143.5 332.5Z" fill="#121312"/>
<path d="M160 353C148 351.8 143.333 347.833 142.5 346C142.5 352 148.167 354.167 151 354.5L160.5 356L167.5 357.5C176.3 357.9 180.167 351.667 181 348.5C179 350.5 172 354.2 160 353Z" fill="#121312"/>
<path d="M148.999 351C140.199 349 141.332 342.167 142.999 337.5C147.398 334.3 151.499 337.5 153 339.5C156.201 342.7 162.334 341.5 165 340.5C171.4 337.7 180.667 341 184.5 343C179.3 357.8 169.333 355.5 165 354L148.999 351Z" fill="#F3FFF3"/>
<path d="M166 308.5C160.179 305.864 154.359 309.954 151.41 311.914C151.226 312.037 151.043 311.825 151.186 311.655C156.416 305.42 161.167 304.542 165 305.5C168.349 306.935 175.36 309.744 179.901 305.165C180.052 305.014 180.298 305.151 180.212 305.346C177.977 310.448 168.376 309.926 166 308.5Z" fill="#121312"/>
<path d="M141 213C146.833 217.833 162 232.5 148 246.5C154.5 235.5 150 223 141 213Z" fill="#121312"/>
<path d="M120.5 209.5C119.793 211.622 118.903 213.379 117.9 214.218C117.691 214.393 117.604 214.691 117.735 214.93L120.137 219.334C120.309 219.649 120.751 219.687 121.019 219.448C126.132 214.891 142.625 221.482 150.5 225.5C139.7 207.9 130 205.167 126.5 206C125.333 206.167 121.3 207.1 120.5 209.5Z" fill="#121312"/>
<path d="M192.47 209.449C182.438 209.374 180.054 215.557 180.009 219.903C179.731 223.07 183.469 225.697 185.514 225.412C185.539 225.409 185.564 225.4 185.586 225.386C203.001 214.783 234.438 226.735 248.962 234.516C249.16 234.622 249.341 234.36 249.191 234.194C227.517 210.04 204.864 209.541 192.47 209.449Z" fill="#121312"/>
<path d="M85.9981 112C93.1981 100 98 109.5 104 109.5L316.099 108.003C316.357 108.001 316.606 108.098 316.789 108.279C322.822 114.214 323.977 123.635 322.439 128.409C322.25 128.997 322.542 129.664 323.118 129.888C331.723 133.227 333.147 142.378 333.444 147.318C333.488 148.049 333.915 148.695 334.543 149.072C338.056 151.181 339.216 153.924 339.375 156.136C339.476 157.536 340.509 159 341.912 159H345.187C346.563 159 347.528 160.358 347.076 161.657L344.291 169.663C344.106 170.196 344.154 170.783 344.424 171.278L349.435 180.464C349.784 181.104 349.757 181.882 349.366 182.496L347.011 186.197C346.688 186.705 346.611 187.332 346.801 187.903L349.31 195.43C349.649 196.448 348.891 197.5 347.817 197.5C347.055 197.5 346.402 198.047 346.268 198.797L344.294 209.852C344.124 210.806 343.294 211.5 342.326 211.5H340.35C339.534 211.5 338.8 211.996 338.495 212.752L327.5 240C325.833 243 320.6 249.3 313 250.5C305.779 251.641 299.49 263.103 296.88 269.533C296.666 270.06 296.063 270.313 295.54 270.089L290.199 267.8C289.786 267.623 289.542 267.192 289.602 266.747L292 249C294.681 233.678 286.572 225.386 281.635 222.809C281.258 222.612 281.026 222.21 281.055 221.786C281.97 208.487 275.935 203.122 272.628 202.041C272.542 202.012 272.457 202 272.366 201.998C263.153 201.791 244.694 197.423 243.5 181.5C242.348 166.143 234.963 163.991 230.982 164.874C230.674 164.942 230.437 165.174 230.329 165.47L226.5 176C221.815 185.816 216.705 186.964 212.436 184.787C211.343 184.23 212.57 183.034 213.795 183.091C220.374 183.397 222.5 170.281 222.5 167C222.5 159.8 216.25 159.5 215 162C211.357 169.286 205.326 171.086 199.807 171.076C198.683 171.074 198.601 169.442 199.635 169.001C202.721 167.685 203.144 166.029 198 165C183.57 162.114 170.058 163.707 163.089 170.273C162.447 170.877 162.964 171.903 163.845 171.929C169.33 172.092 177.308 174.502 178 183.5C178.593 191.207 167.692 191.153 157.869 189.32C156.687 189.099 156.931 187.653 158.132 187.714C168.539 188.238 177.742 187.754 166.5 183.5C152.038 178.028 136.079 179.749 129.449 181.386C129.161 181.457 128.927 181.656 128.802 181.925L123.352 193.604C122.937 194.492 121.625 194.316 121.46 193.35L119.136 179.792C119.056 179.33 118.664 178.979 118.195 178.988C112.012 179.1 112.45 184.297 113.976 188.271C114.297 189.108 113.511 190.003 112.699 189.624C104.26 185.689 109.068 178.164 112.913 174.581C112.972 174.526 113.025 174.463 113.069 174.396C118.355 166.285 105.949 163.473 98.5572 163.03C98.2096 163.009 97.8733 163.185 97.6863 163.478C89.1963 176.819 103.686 188.389 114.171 193.679C115.04 194.117 114.878 195.374 113.907 195.45C105.732 196.089 97.5581 192.638 94.0952 190.558C94.0299 190.519 93.9702 190.471 93.9159 190.418C75.7895 172.599 83.5366 160.019 90.8683 155.001C91.5354 154.544 91.5301 153.431 91.0187 152.805C89.2933 150.693 89.1785 147.036 89.5255 144.133C89.6353 143.214 88.6752 142.659 88.1844 143.443C86.7777 145.69 86.4662 148.719 86.2725 151.178C86.2285 151.735 85.612 151.749 85.5299 151.195C82.6055 131.473 88.7233 119.717 92.401 116.096C92.4685 116.03 92.5417 115.979 92.6256 115.935C96.7818 113.768 102.4 110.54 92.5 114.5C84.7179 117.613 82.4865 124.763 82.2719 130.06C82.2299 131.097 81.2439 131.378 81.0606 130.356C80.375 126.534 81.0155 120.305 85.9981 112Z" fill="#121312"/>
<ellipse cx="211" cy="110" rx="107" ry="12" fill="#4EDF88"/>
<path d="M24 33.5C60 34.5 159.301 46.166 176.501 91.366" stroke="#F3FFF3" stroke-width="3"/>
<path d="M169.365 97.9725C162.038 98.1936 141.886 97.799 130.528 97.5226C129.184 97.4898 128.363 98.7327 129.311 99.6859C132.602 102.995 140.264 106.411 144.39 107.94C159.032 112.005 186.987 107.835 199.134 105.243C203.542 104.694 207.518 101.749 210.173 99.0837C211.344 97.9081 210.405 96.1073 208.747 96.1826L169.365 97.9725Z" fill="#121312"/>
<path d="M181.868 101.559C165.629 102.915 141.399 100.184 129.576 98.0692C129.339 98.0267 129.375 97.6998 129.616 97.7003C140.019 97.7203 159.274 98.2108 168.206 98.1486L209.495 96.25C210.013 96.2262 210.17 96.8056 209.686 96.9905C203.487 99.3586 189.163 101.008 181.868 101.559Z" fill="#F3FFF3"/>
<path d="M173.01 77.4609C174.37 74.7406 177.43 75.6473 178.791 76.4407C181.239 78.345 182.078 82.2214 182.191 83.9216L180.831 85.2817C181.103 91.5384 179.584 99.2233 178.791 102.284H175.05C174.234 101.196 173.35 94.5761 173.01 91.4024L171.99 91.7425V85.9618L170.63 86.9819L169.27 86.3019L173.01 77.4609Z" fill="#121312"/>
<circle cx="174.708" cy="73.3803" r="2.38027" fill="#121312"/>
</g>
<path d="M0 -1H375V1H0V-1ZM375 480H0H375ZM0 480V0V480ZM375 0V480V0Z" fill="#00A084" mask="url(#path-1-outside-1_1470_10701)"/>
<defs>
<clipPath id="clip0_1470_10701">
<path d="M0 0H375V471C375 475.971 370.971 480 366 480H9C4.02943 480 0 475.971 0 471V0Z" fill="white"/>
</clipPath>
</defs>
</svg>
