<svg width="43" height="43" viewBox="0 0 43 43" fill="none" xmlns="http://www.w3.org/2000/svg">
<rect x="0.5" y="0.75" width="6" height="6" rx="2" fill="#00A084"/>
<rect x="6.5" y="0.75" width="6" height="6" rx="2" fill="#00A084"/>
<rect x="30.5" y="0.75" width="6" height="6" rx="2" fill="#00A084"/>
<rect x="36.5" y="0.75" width="6" height="6" rx="2" fill="#00A084"/>
<rect x="0.5" y="6.75" width="6" height="6" rx="2" fill="#00A084"/>
<rect x="6.5" y="6.75" width="6" height="6" rx="2" fill="#00A084"/>
<rect x="30.5" y="6.75" width="6" height="6" rx="2" fill="#00A084"/>
<rect x="36.5" y="6.75" width="6" height="6" rx="2" fill="#00A084"/>
<rect x="18.5" y="12.75" width="6" height="6" rx="2" fill="#00A084"/>
<rect x="18.5" y="18.75" width="6" height="6" rx="2" fill="#00A084"/>
<rect x="18.5" y="24.75" width="6" height="6" rx="2" fill="#00A084"/>
<rect x="0.5" y="30.75" width="6" height="6" rx="2" fill="#00A084"/>
<rect x="36.5" y="30.75" width="6" height="6" rx="2" fill="#00A084"/>
<rect x="6.5" y="36.75" width="6" height="6" rx="2" fill="#00A084"/>
<rect x="12.5" y="36.75" width="6" height="6" rx="2" fill="#00A084"/>
<rect x="18.5" y="36.75" width="6" height="6" rx="2" fill="#00A084"/>
<rect x="24.5" y="36.75" width="6" height="6" rx="2" fill="#00A084"/>
<rect x="30.5" y="36.75" width="6" height="6" rx="2" fill="#00A084"/>
</svg>
